<?xml version="1.0" standalone="no"?>
<!DOCTYPE svg PUBLIC "-//W3C//DTD SVG 20010904//EN"
 "http://www.w3.org/TR/2001/REC-SVG-20010904/DTD/svg10.dtd">
<svg version="1.0" xmlns="http://www.w3.org/2000/svg"
 width="300.000000pt" height="300.000000pt" viewBox="0 0 300.000000 300.000000"
 preserveAspectRatio="xMidYMid meet">
<metadata>
Created by potrace 1.11, written by Peter Selinger 2001-2013
</metadata>
<g transform="translate(0.000000,300.000000) scale(0.100000,-0.100000)"
fill="#000000" stroke="none">
<path d="M1401 2859 c-62 -19 -117 -65 -145 -121 -21 -43 -26 -66 -26 -130 0
-90 16 -137 63 -186 44 -46 99 -73 163 -79 l54 -6 26 -83 c60 -197 85 -423 65
-579 -17 -127 -20 -135 -45 -135 -59 0 -132 -33 -176 -79 -52 -53 -70 -102
-70 -187 0 -90 16 -133 69 -186 l47 -47 -32 -71 c-53 -115 -117 -201 -224
-304 -95 -90 -130 -111 -146 -85 -15 25 -90 49 -157 49 -108 0 -195 -54 -233
-146 -23 -56 -18 -180 10 -240 50 -108 181 -160 307 -122 51 15 114 69 142
122 17 34 21 58 22 137 l0 97 54 42 c136 107 269 278 327 419 l28 69 56 5 c92
8 163 55 206 137 14 27 19 57 19 125 0 80 -3 95 -27 137 -16 25 -40 56 -55 67
l-26 21 46 93 c92 183 198 292 362 373 50 24 96 44 102 44 6 0 38 -26 70 -58
64 -63 108 -82 189 -82 97 1 177 50 219 133 20 41 25 65 25 126 -1 120 -40
190 -134 238 -42 22 -60 24 -126 21 -64 -2 -84 -8 -126 -33 -63 -39 -103 -104
-111 -178 l-6 -55 -61 -22 c-147 -53 -283 -149 -376 -266 l-57 -72 -6 117 c-6
125 -32 277 -71 411 l-25 85 34 27 c95 79 111 266 32 370 -18 23 -53 53 -79
66 -53 27 -145 37 -197 21z"/>
</g>
</svg>
